<?xml version="1.0" encoding="UTF-8"?>
<svg width="20px" height="20px" viewBox="0 0 20 20" version="1.1" xmlns="http://www.w3.org/2000/svg" xmlns:xlink="http://www.w3.org/1999/xlink">
    <title>loading</title>
    <g id="Page-1" stroke="none" stroke-width="1" fill="none" fill-rule="evenodd">
        <g id="loading">
            <path d="M10.4375,1.6897 C9.28844891,1.6897 8.15063343,1.91602535 7.08902341,2.35574787 C6.02741431,2.79548548 5.06281594,3.44001295 4.25031634,4.25252348 C3.43781295,5.06501594 2.79328548,6.02961431 2.35355144,7.0912148 C1.91382535,8.15283343 1.6875,9.29064891 1.6875,10.4397 C1.6875,11.588781 1.91382533,12.7266074 2.35354892,13.7882091 C2.79327329,14.8497863 3.43778764,15.814365 4.25030921,16.6269194 C5.06289407,17.4394386 6.02750806,18.0839571 7.08903917,18.5236187 C8.15053396,18.96337 9.28835883,19.1897 10.4375,19.1897 C11.5866711,19.1897 12.7245069,18.96337 13.7860518,18.5235934 C14.8474925,18.0839693 15.8120869,17.4394639 16.6246944,16.6269658 C17.4372639,15.8142869 18.0817693,14.8496925 18.5214187,13.7881908 C18.96117,12.7267069 19.1875,11.5888711 19.1875,10.4397 C19.1875,9.29055245 18.9611714,8.1527373 18.5213945,7.09118076 C18.0817571,6.02970806 17.4372386,5.06509407 16.6247515,4.25254133 C15.812165,3.43998764 14.8475863,2.79547329 13.7860152,2.35575144 C12.7244074,1.91602533 11.586581,1.6897 10.4375,1.6897 Z M10.4375,3.1897 C11.3896005,3.1897 12.3323754,3.37722759 13.2119909,3.74157108 C14.0915739,4.10591022 14.8908045,4.63994189 15.5640806,5.31319079 C16.2372654,5.98642992 16.7712992,6.78568777 17.1355813,7.66522083 C17.4999759,8.54481548 17.6875,9.48754982 17.6875,10.4397 C17.6875,11.391874 17.4999745,12.3346271 17.1356066,13.2141482 C16.7713088,14.093719 16.2372803,14.8929689 15.5640342,15.5663056 C14.8907689,16.2394803 14.091519,16.7735088 13.2120092,17.1377813 C12.3324271,17.5021745 11.389674,17.6897 10.4375,17.6897 C9.48535597,17.6897 8.54261193,17.5021744 7.66307924,17.1378055 C6.78348777,16.7734992 5.98422992,16.2394654 5.31095867,15.5662485 C4.63774189,14.8930045 4.10371022,14.0937739 3.73936856,13.2141848 C3.37502759,12.3345754 3.1875,11.3918005 3.1875,10.4397 C3.1875,9.48762946 3.37502762,8.54486354 3.73937213,7.66523659 C4.10371983,6.78563287 4.63775686,5.98639425 5.31097652,5.31318366 C5.98419425,4.63995686 6.78343287,4.10591983 7.6630452,3.74156856 C8.54266354,3.37722762 9.48542946,3.1897 10.4375,3.1897 Z" id="Path" fill="#4B6358" fill-rule="nonzero" opacity="0.397189912"></path>
            <path d="M15.5640795,4.25250036 C15.856978,3.95961242 16.3318517,3.95962097 16.6247396,4.25251947 C18.1420886,5.76992313 19.048926,7.79204019 19.1728462,9.93436071 C19.2968743,12.0766242 18.6291929,14.1898787 17.2968382,15.8722486 C15.9645363,17.5544425 14.0604311,18.6884365 11.9466569,19.0585603 C9.83289571,19.4286799 7.65681691,19.0091382 5.83214062,17.8797215 C5.47993676,17.6617185 5.37114548,17.1994745 5.58914849,16.8472706 C5.80715151,16.4950668 6.26939551,16.3862755 6.62159938,16.6042785 C8.1334868,17.5400888 9.93653491,17.8877113 11.6879424,17.5810398 C13.4393614,17.2743648 15.0170589,16.3347635 16.120947,14.94097 C17.2248974,13.5470073 17.7781173,11.7960307 17.6753516,10.0210205 C17.5726723,8.24590977 16.8212901,6.5704356 15.5640604,5.31316053 C15.2711724,5.02026203 15.271181,4.5453883 15.5640795,4.25250036 Z" id="Path" fill="#4B6358" fill-rule="nonzero"></path>
            <rect id="rectangle" x="0" y="0" width="20" height="20"></rect>
        </g>
    </g>
</svg>
